<svg xmlns="http://www.w3.org/2000/svg" viewBox="0 0 800 450" role="img" aria-labelledby="title desc"><title id="title">Графическая аналогия: вопрос 54</title><desc id="desc">Исходное отношение и четыре варианта с крестообразной и трёхлопастной фигурами.</desc>
  <style>.shape{fill:#fff;stroke:#1f2937;stroke-width:3.5;stroke-linecap:round;stroke-linejoin:round}.line{fill:none;stroke:#1f2937;stroke-width:3.5;stroke-linecap:round;stroke-linejoin:round}.guide{fill:none;stroke:#64748b;stroke-width:3;stroke-linecap:round;stroke-linejoin:round}.key{font:700 22px "Segoe UI",Arial,sans-serif;fill:#1f2937}</style>
  <defs><path id="cross" d="M42 8 H118 V29 H143 V105 H118 V128 H42 V108 H17 V31 H42 Z"/><path id="trefoil" d="M90 5 C119 31 128 65 116 92 C148 98 168 120 176 150 C144 158 114 154 90 136 C66 154 36 158 4 150 C12 120 32 98 64 92 C52 65 61 31 90 5 Z"/><g id="cross-result"><use href="#cross" class="shape"/><rect class="line" x="42" y="29" width="76" height="79"/><circle class="shape" cx="80" cy="18" r="10"/><circle class="shape" cx="131" cy="68" r="10"/><circle class="shape" cx="80" cy="118" r="10"/><circle class="shape" cx="29" cy="68" r="10"/></g><g id="cross-circles"><use href="#cross" class="shape"/><circle class="shape" cx="80" cy="18" r="10"/><circle class="shape" cx="131" cy="68" r="10"/><circle class="shape" cx="80" cy="118" r="10"/><circle class="shape" cx="29" cy="68" r="10"/></g><g id="trefoil-complete"><use href="#trefoil" class="shape"/><path class="line" d="M64 92 C80 83 100 83 116 92 M64 92 C78 106 83 124 90 136 M116 92 C102 106 97 124 90 136"/><circle class="shape" cx="90" cy="56" r="10"/><circle class="shape" cx="47" cy="124" r="10"/><circle class="shape" cx="133" cy="124" r="10"/></g><g id="four-petal"><path class="shape" d="M90 5 C110 23 121 40 126 58 C145 61 162 69 176 80 C162 94 145 102 126 105 C121 123 110 141 90 159 C70 141 59 123 54 105 C35 102 18 94 4 80 C18 66 35 58 54 55 C59 37 70 23 90 5 Z"/><path class="line" d="M54 55 C74 50 106 50 126 58 C131 76 131 89 126 105 C106 110 74 110 54 105 C49 89 49 73 54 55 Z"/><circle class="shape" cx="90" cy="32" r="10"/><circle class="shape" cx="147" cy="80" r="10"/><circle class="shape" cx="90" cy="132" r="10"/><circle class="shape" cx="33" cy="80" r="10"/></g></defs>
  <g transform="translate(26 28) scale(.92)"><use href="#cross" class="shape"/></g><path class="guide" d="M180 92 H230 M218 80 L230 92 L218 104"/><g transform="translate(250 24) scale(.94)"><use href="#cross-result"/></g><path class="guide" d="M422 70 V102 M422 124 V128"/><g transform="translate(456 16) scale(.96)"><use href="#trefoil" class="shape"/></g><path class="guide" d="M648 92 H698 M686 80 L698 92 L686 104"/><text class="key" x="725" y="101">?</text><line x1="28" y1="198" x2="772" y2="198" stroke="#dbe3ed" stroke-width="2"/>
  <g transform="translate(26 252)"><text class="key" x="0" y="76">А</text><g transform="translate(34 0) scale(.78)"><use href="#cross-circles"/></g></g><g transform="translate(216 232)"><text class="key" x="0" y="96">Б</text><g transform="translate(32 0) scale(.78)"><use href="#trefoil-complete"/></g></g><g transform="translate(414 232)"><text class="key" x="0" y="96">В</text><g transform="translate(32 0) scale(.78)"><use href="#trefoil" class="shape"/></g></g><g transform="translate(608 236)"><text class="key" x="0" y="92">Г</text><g transform="translate(34 0) scale(.76)"><use href="#four-petal"/></g></g>
</svg>
